<svg width="32" height="32" viewBox="0 0 32 32" fill="none" xmlns="http://www.w3.org/2000/svg">
<path fill-rule="evenodd" clip-rule="evenodd" d="M7.29289 7.2929C7.68342 6.90238 8.31658 6.90238 8.70711 7.2929L24.7071 23.2929C25.0976 23.6834 25.0976 24.3166 24.7071 24.7071C24.3166 25.0976 23.6834 25.0976 23.2929 24.7071L7.29289 8.70712C6.90237 8.31659 6.90237 7.68343 7.29289 7.2929Z" fill="#222425"/>
<path fill-rule="evenodd" clip-rule="evenodd" d="M18.6656 7.00525C19.1311 6.97091 19.5756 7.1067 19.9441 7.3623C20.3079 7.61465 20.5784 7.96854 20.7528 8.35685C20.9257 8.74197 21.0073 9.16649 20.9995 9.58696V15C20.9995 15.5523 20.5518 16 19.9995 16C19.4472 16 18.9995 15.5523 18.9995 15V9.57668L18.9997 9.55384C19.003 9.41085 18.9744 9.27899 18.9282 9.17608C18.8839 9.0773 18.8342 9.02776 18.8078 9.00827L16.2201 11.6939C15.8369 12.0916 15.2038 12.1033 14.8061 11.7201C14.4084 11.3369 14.3967 10.7039 14.7799 10.3062L17.4045 7.58229C17.4212 7.56489 17.4386 7.54809 17.4566 7.53195C17.785 7.23725 18.2019 7.03946 18.6656 7.00525ZM10 14C10.5523 14 11 14.4477 11 15V17.6046C11 17.8317 11.0752 18.0142 11.1586 18.1213C11.2093 18.1864 11.2452 18.2055 11.258 18.2102H13.1248C13.3762 18.2102 13.6184 18.3049 13.8032 18.4755L18.6904 22.9872C19.0962 23.3618 19.1215 23.9944 18.7469 24.4003C18.3722 24.8061 17.7396 24.8313 17.3338 24.4567L12.7338 20.2102H11.2499C10.5319 20.2102 9.95039 19.8251 9.58043 19.3499C9.20917 18.873 9 18.2526 9 17.6046V15C9 14.4477 9.44772 14 10 14Z" fill="#222425"/>
</svg>
